<?xml version="1.0" standalone="no"?><!DOCTYPE svg PUBLIC "-//W3C//DTD SVG 1.1//EN" "http://www.w3.org/Graphics/SVG/1.1/DTD/svg11.dtd"><svg t="1498114297644" class="icon" style="" viewBox="0 0 1229 1024" version="1.1" xmlns="http://www.w3.org/2000/svg" p-id="1075" xmlns:xlink="http://www.w3.org/1999/xlink" width="240.0390625" height="200"><defs><style type="text/css"></style></defs><path d="M72.492 37.862c0-1.5 0.563-3 1.688-4.146 1.036-1.059 2.48-1.717 4.077-1.717 0 0 0 0 0 0h36.471c1.476 0 2.95 0.572 4.076 1.716 1.043 1.063 1.688 2.521 1.688 4.13 0 0.006 0 0.011 0 0.018v905.324h970.237c1.475 0 2.951 0.572 4.075 1.717 1.044 1.062 1.689 2.521 1.689 4.13 0 0.005 0 0.010 0 0.015v37.088c0 1.5-0.563 3.001-1.689 4.144-1.035 1.060-2.479 1.718-4.076 1.718h-1018.235v-954.138z" p-id="1076" fill="#2c2c2c"></path><path d="M520.493 49.294c0-4.426 1.125-8.853 3.377-12.228 2.252-3.377 5.202-5.066 8.152-5.066h104.941c2.951 0 5.902 1.688 8.153 5.066 2.25 3.377 3.377 7.803 3.377 12.228v814.706h-128v-814.706zM264.492 304.827c0-4.307 1.125-8.613 3.378-11.897 2.25-3.286 5.201-4.929 8.152-4.929h104.942c2.95 0 5.901 1.642 8.152 4.928s3.377 7.593 3.377 11.897v559.175h-128v-559.174zM779.87 548.606c2.251-3.069 5.202-4.606 8.152-4.606h104.942c2.95 0 5.902 1.536 8.152 4.606 2.25 3.069 3.378 7.093 3.378 11.116v304.279h-128.001v-304.279c0-4.024 1.127-8.047 3.378-11.116zM1032.492 755.764c0-5.058 1.126-10.116 3.378-13.974 2.25-3.858 5.201-5.79 8.152-5.79h104.942c2.95 0 5.901 1.931 8.152 5.79 2.25 3.86 3.377 8.917 3.377 13.974v108.236h-128v-108.236z" p-id="1077" fill="#2c2c2c"></path></svg>